<svg width="21" height="16" viewBox="0 0 21 16" fill="none" xmlns="http://www.w3.org/2000/svg">
<mask id="path-1-inside-1_0_11" fill="white">
<path fill-rule="evenodd" clip-rule="evenodd" d="M14.6035 0.999999H5.60449C3.94764 0.999999 2.60449 2.34315 2.60449 4V6.7476C2.3303 6.52995 1.98301 6.3999 1.60526 6.3999H1.60449V4C1.60449 1.79086 3.39535 0 5.60449 0H14.6035C16.8126 0 18.6035 1.79086 18.6035 4V6.3999C18.2254 6.39996 17.8778 6.53034 17.6035 6.74843V4C17.6035 2.34314 16.2603 0.999999 14.6035 0.999999ZM17.6035 9.25136V12C17.6035 13.6569 16.2603 15 14.6035 15H5.60449C3.94763 15 2.60449 13.6569 2.60449 12V9.2522C2.3303 9.46984 1.98301 9.5999 1.60526 9.5999H1.60449V12C1.60449 14.2091 3.39535 16 5.60449 16H14.6035C16.8126 16 18.6035 14.2091 18.6035 12V9.5999C18.2254 9.59983 17.8778 9.46945 17.6035 9.25136ZM18.6035 7.3999V8.5999C18.2663 8.59975 17.9985 8.32809 17.9985 7.9999C17.9985 7.67171 18.2663 7.40005 18.6035 7.3999ZM1.60449 7.3999V8.5999H1.60526C1.94262 8.5999 2.21051 8.32818 2.21051 7.9999C2.21051 7.67161 1.94262 7.3999 1.60526 7.3999L1.60449 7.3999Z"/>
</mask>
<path d="M2.60449 6.7476L1.98278 7.53084L3.60449 8.81808V6.7476H2.60449ZM1.60449 6.3999H0.604492V7.3999H1.60449V6.3999ZM18.6035 6.3999L18.6037 7.3999L19.6035 7.39972V6.3999H18.6035ZM17.6035 6.74843H16.6035V8.82111L18.2258 7.53116L17.6035 6.74843ZM17.6035 9.25136L18.2258 8.46863L16.6035 7.17869V9.25136H17.6035ZM2.60449 9.2522H3.60449V7.18171L1.98278 8.46895L2.60449 9.2522ZM1.60449 9.5999V8.5999H0.604492V9.5999H1.60449ZM18.6035 9.5999H19.6035V8.60007L18.6037 8.5999L18.6035 9.5999ZM18.6035 8.5999L18.603 9.5999L19.6035 9.60035V8.5999H18.6035ZM18.6035 7.3999H19.6035V6.39945L18.603 6.3999L18.6035 7.3999ZM1.60449 8.5999H0.604492V9.5999H1.60449V8.5999ZM1.60449 7.3999L1.60387 6.3999L0.604492 6.40052V7.3999H1.60449ZM1.60526 7.3999V6.3999H1.60463L1.60526 7.3999ZM5.60449 2H14.6035V0H5.60449V2ZM3.60449 4C3.60449 2.89543 4.49992 2 5.60449 2V0C3.39535 0 1.60449 1.79086 1.60449 4H3.60449ZM3.60449 6.7476V4H1.60449V6.7476H3.60449ZM1.60526 7.3999C1.74956 7.3999 1.87929 7.4487 1.98278 7.53084L3.2262 5.96435C2.7813 5.61121 2.21647 5.3999 1.60526 5.3999V7.3999ZM1.60449 7.3999H1.60526V5.3999H1.60449V7.3999ZM0.604492 4V6.3999H2.60449V4H0.604492ZM5.60449 -0.999999C2.84307 -0.999999 0.604492 1.23858 0.604492 4H2.60449C2.60449 2.34315 3.94763 0.999999 5.60449 0.999999V-0.999999ZM14.6035 -0.999999H5.60449V0.999999H14.6035V-0.999999ZM19.6035 4C19.6035 1.23858 17.3649 -0.999999 14.6035 -0.999999V0.999999C16.2603 0.999999 17.6035 2.34314 17.6035 4H19.6035ZM19.6035 6.3999V4H17.6035V6.3999H19.6035ZM18.2258 7.53116C18.3294 7.44884 18.4592 7.39992 18.6037 7.3999L18.6033 5.3999C17.9915 5.4 17.4262 5.61184 16.9811 5.9657L18.2258 7.53116ZM16.6035 4V6.74843H18.6035V4H16.6035ZM14.6035 2C15.7081 2 16.6035 2.89543 16.6035 4H18.6035C18.6035 1.79086 16.8126 0 14.6035 0V2ZM16.6035 9.25136V12H18.6035V9.25136H16.6035ZM16.6035 12C16.6035 13.1046 15.7081 14 14.6035 14V16C16.8126 16 18.6035 14.2091 18.6035 12H16.6035ZM14.6035 14H5.60449V16H14.6035V14ZM5.60449 14C4.49992 14 3.60449 13.1046 3.60449 12H1.60449C1.60449 14.2091 3.39535 16 5.60449 16V14ZM3.60449 12V9.2522H1.60449V12H3.60449ZM1.98278 8.46895C1.87929 8.55109 1.74956 8.5999 1.60526 8.5999V10.5999C2.21647 10.5999 2.7813 10.3886 3.2262 10.0354L1.98278 8.46895ZM1.60526 8.5999H1.60449V10.5999H1.60526V8.5999ZM0.604492 9.5999V12H2.60449V9.5999H0.604492ZM0.604492 12C0.604492 14.7614 2.84306 17 5.60449 17V15C3.94763 15 2.60449 13.6569 2.60449 12H0.604492ZM5.60449 17H14.6035V15H5.60449V17ZM14.6035 17C17.3649 17 19.6035 14.7614 19.6035 12H17.6035C17.6035 13.6569 16.2603 15 14.6035 15V17ZM19.6035 12V9.5999H17.6035V12H19.6035ZM18.6037 8.5999C18.4592 8.59987 18.3294 8.55095 18.2258 8.46863L16.9811 10.0341C17.4262 10.388 17.9915 10.5998 18.6033 10.5999L18.6037 8.5999ZM19.6035 8.5999V7.3999H17.6035V8.5999H19.6035ZM16.9985 7.9999C16.9985 8.88176 17.7153 9.5995 18.603 9.5999L18.6039 7.5999C18.8173 7.59999 18.9985 7.77441 18.9985 7.9999H16.9985ZM18.603 6.3999C17.7153 6.4003 16.9985 7.11803 16.9985 7.9999H18.9985C18.9985 8.22538 18.8173 8.3998 18.6039 8.39989L18.603 6.3999ZM2.60449 8.5999V7.3999H0.604492V8.5999H2.60449ZM1.60526 7.5999H1.60449V9.5999H1.60526V7.5999ZM1.21051 7.9999C1.21051 7.77435 1.39188 7.5999 1.60526 7.5999V9.5999C2.49337 9.5999 3.21051 8.882 3.21051 7.9999H1.21051ZM1.60526 8.39989C1.39188 8.39989 1.21051 8.22544 1.21051 7.9999H3.21051C3.21051 7.11779 2.49337 6.3999 1.60526 6.3999V8.39989ZM1.60511 8.39989H1.60588L1.60463 6.3999L1.60387 6.3999L1.60511 8.39989Z" fill="#004CFF" mask="url(#path-1-inside-1_0_11)"/>
<path d="M3.604 7.99999H16.604" stroke="#004CFF" stroke-dasharray="1"/>
</svg>
