<svg width="11" height="11" viewBox="0 0 11 11" fill="none" xmlns="http://www.w3.org/2000/svg">
<path d="M8.03845 0C8.03052 0 8.01994 0 8.01201 0C6.96225 0 6.03413 0.555288 5.49999 1.375C4.96586 0.555288 4.03773 0 2.98798 0C2.98004 0 2.96947 0 2.96153 0C1.32476 0.0158653 0 1.34591 0 2.98798C0 3.96634 0.428365 5.35456 1.26394 6.49687C2.85577 8.67307 5.49999 10.5769 5.49999 10.5769C5.49999 10.5769 8.14422 8.67307 9.73604 6.49687C10.5716 5.35456 11 3.96634 11 2.98798C11 1.34591 9.67523 0.0158653 8.03845 0Z" fill="#0042E0"/>
</svg>
