<svg width="82" height="92" viewBox="0 0 82 92" fill="none" xmlns="http://www.w3.org/2000/svg">
<path d="M74.4857 88.2308L0 89.0686L13.1998 16.1273L65.6855 19.1258L74.4857 88.2308Z" fill="#8BC6FF"/>
<path d="M81.3998 92H11.8379L12.2287 88.9313L74.4857 88.2308L65.9912 21.5261L74.4857 20.6151L81.3998 92Z" fill="#0051FF" fill-opacity="0.6"/>
<path d="M12.229 88.9316L20.1874 26.4361L65.9915 21.5264L74.486 88.2311L12.229 88.9316Z" fill="#0051FF" fill-opacity="0.6"/>
<path d="M57.3532 14.1609H52.9025C52.9025 8.80523 48.544 4.44872 43.1852 4.44872C37.8275 4.44872 33.468 8.80523 33.468 14.1609H29.0173C29.0173 6.35288 35.3732 9.53674e-07 43.1852 9.53674e-07C50.9973 9.53674e-07 57.3532 6.35288 57.3532 14.1609Z" fill="#5982DA"/>
</svg>
