<svg width="23" height="21" viewBox="0 0 23 21" fill="none" xmlns="http://www.w3.org/2000/svg">
<path d="M11.2052 18.9648C16.1359 15.5845 18.7219 12.5094 19.7824 9.93565C21.7739 5.10122 18.3831 2.03523 15.0389 2.03523C13.612 2.03523 12.1931 2.59388 11.2052 3.81157C10.217 2.59363 8.79861 2.03523 7.37141 2.03523C4.02751 2.03523 0.636631 5.10164 2.6279 9.93565C3.68844 12.5094 6.27441 15.5845 11.2052 18.9648ZM11.2052 21C10.8031 21 10.4011 20.8811 10.0544 20.6434C5.23115 17.3369 2.09942 13.9951 0.746165 10.7111C-0.379114 7.97932 -0.227499 5.32314 1.17298 3.23157C2.50769 1.23827 4.88278 0 7.37141 0C8.7657 0 10.0906 0.39261 11.2052 1.11201C12.3198 0.392613 13.6446 0 15.0389 0C17.5277 0 19.9029 1.23821 21.2375 3.23143C22.6379 5.32291 22.7895 7.97914 21.6642 10.7108C20.3109 13.9951 17.1792 17.3368 12.3559 20.6434C12.0092 20.8811 11.6072 21 11.2052 21Z" fill="#004CFF"/>
</svg>
